<?xml version="1.0" encoding="utf-8"?>
<!-- Generator: Adobe Illustrator 24.1.0, SVG Export Plug-In . SVG Version: 6.00 Build 0)  -->
<svg version="1.1" id="Layer_1" xmlns="http://www.w3.org/2000/svg" xmlns:xlink="http://www.w3.org/1999/xlink" x="0px" y="0px"
	 viewBox="0 0 512 512" style="enable-background:new 0 0 512 512;" xml:space="preserve">
<style type="text/css">
	.st0{fill:#FFE031;}
	.st1{fill:#FFFFFF;}
	.st2{fill:#FFAA00;}
</style>
<g>
	<path class="st0" d="M89.45,306.86c0-87.16,70.65-157.81,157.81-157.81s157.81,70.65,157.81,157.81"/>
	<path class="st1" d="M127.14,272.85c-0.06,0.28-0.1,0.58-0.1,0.87l0,0.83v0.34h13.83c2.38,0,4.38-1.74,4.74-4.09
		c0.23-1.46,1.2-4.08,2.07-6.6c3.8-11,14.9-32.63,48.46-76.14c1.02-1.32-0.57-3.06-1.97-2.17
		C177.97,196.27,137.79,226.15,127.14,272.85z"/>
	<g>
		<circle class="st0" cx="149.43" cy="348.16" r="33.21"/>
		<circle class="st1" cx="149.71" cy="348.01" r="19.3"/>
		<circle class="st0" cx="149.71" cy="348.01" r="16.7"/>
		<circle class="st1" cx="149.71" cy="348.16" r="13.71"/>
		<circle class="st2" cx="149.71" cy="348.16" r="6.99"/>
	</g>
	<g>
		<circle class="st0" cx="341.78" cy="348.01" r="33.21"/>
		<circle class="st1" cx="342.07" cy="347.87" r="19.3"/>
		<circle class="st0" cx="342.07" cy="347.87" r="16.7"/>
		<circle class="st1" cx="342.07" cy="348.01" r="13.71"/>
		<circle class="st2" cx="342.07" cy="348.01" r="6.99"/>
	</g>
	<path class="st2" d="M235.1,130.64h20.44c1.82,0,2.93,2.01,1.96,3.55l-5.41,8.57c-0.24,0.38-0.36,0.82-0.36,1.26l0.03,2.57
		c0.02,1.27-1,2.32-2.27,2.34l-7.97,0.13c-1.29,0.02-2.35-1.02-2.35-2.31l0-2.89c0-0.46-0.14-0.91-0.39-1.29l-5.6-8.33
		C232.15,132.7,233.25,130.64,235.1,130.64z"/>
	<path class="st2" d="M78.84,315.4c7.72,4.44,11.5,8.39,13.19,10.57c0.87,1.12,2.19,1.78,3.61,1.78h21.04c1.47,0,2.83-0.72,3.7-1.9
		c1.05-1.44,2.18-2.77,3.37-3.96c0.66-0.66,1.35-1.28,2.07-1.89c9.21-9.11,21.48-9.02,23.24-9.09c16.05-0.1,23.75,7.12,27.17,12.14
		c0.82,0.91,1.6,1.86,2.33,2.85c0.86,1.16,2.21,1.85,3.66,1.85h126.67c1.45,0,2.8-0.7,3.66-1.86c0.86-1.15,1.77-2.23,2.72-3.23
		c0.06-0.06,0.11-0.12,0.16-0.18c9.78-12.23,25.71-11.57,26.62-11.57c16.44,0,23.86,8.13,26.85,13.09c0.11,0.18,0.22,0.34,0.36,0.5
		c0.39,0.47,0.77,0.95,1.13,1.43c0.86,1.14,2.2,1.82,3.63,1.82h24.99c1.54,0,3.02-0.74,3.84-2.04c2.39-3.76,7.21-7.33,12.31-10.32
		c4.02-2.36,2.38-8.49-2.28-8.49H81.09C76.43,306.9,74.8,313.07,78.84,315.4z"/>
	<path class="st2" d="M360.17,178.65l-2.04-3.66c-0.7-1.25,0.21-2.79,1.64-2.79h73.82c1.04,0,1.87,0.84,1.87,1.87v2.7
		c0,1.04-0.84,1.87-1.87,1.87h-72.49"/>
	<path class="st2" d="M399.29,224.73l-0.98-3.66c-0.34-1.25,0.1-2.79,0.79-2.79h35.47c0.5,0,0.9,0.84,0.9,1.87v2.7
		c0,1.04-0.4,1.87-0.9,1.87h-34.83"/>
	<path class="st2" d="M411.46,274.76l-0.65-3.66c-0.22-1.25,0.07-2.79,0.52-2.79h23.53c0.33,0,0.6,0.84,0.6,1.87v2.7
		c0,1.04-0.27,1.87-0.6,1.87h-23.11"/>
</g>
</svg>
